<?xml version="1.0" encoding="UTF-8" standalone="no"?>
<!DOCTYPE svg PUBLIC "-//W3C//DTD SVG 1.1//EN"
 "http://www.w3.org/Graphics/SVG/1.1/DTD/svg11.dtd">
<!-- Generated by graphviz version 7.1.0 (0)
 -->
<!-- Title: G Pages: 1 -->
<svg width="266pt" height="803pt"
 viewBox="0.00 0.00 266.00 803.00" xmlns="http://www.w3.org/2000/svg" xmlns:xlink="http://www.w3.org/1999/xlink">
<g id="graph0" class="graph" transform="scale(1 1) rotate(0) translate(4 799)">
<title>G</title>
<polygon fill="white" stroke="none" points="-4,4 -4,-799 262,-799 262,4 -4,4"/>
<!-- Empty -->
<g id="node1" class="node">
<title>Empty</title>
<polygon fill="none" stroke="black" points="118,-782 118,-788 124,-788 124,-782 118,-782"/>
<polygon fill="none" stroke="black" points="126,-782 126,-788 132,-788 132,-782 126,-782"/>
<polygon fill="none" stroke="black" points="134,-782 134,-788 140,-788 140,-782 134,-782"/>
<polygon fill="none" stroke="black" points="118,-774 118,-780 124,-780 124,-774 118,-774"/>
<polygon fill="none" stroke="black" points="126,-774 126,-780 132,-780 132,-774 126,-774"/>
<polygon fill="none" stroke="black" points="134,-774 134,-780 140,-780 140,-774 134,-774"/>
<polygon fill="none" stroke="black" points="118,-766 118,-772 124,-772 124,-766 118,-766"/>
<polygon fill="none" stroke="black" points="126,-766 126,-772 132,-772 132,-766 126,-766"/>
<polygon fill="none" stroke="black" points="134,-766 134,-772 140,-772 140,-766 134,-766"/>
<polygon fill="none" stroke="black" points="115,-763 115,-791 143,-791 143,-763 115,-763"/>
</g>
<!-- M1 -->
<g id="node2" class="node">
<title>M1</title>
<polygon fill="none" stroke="black" points="113,-709.5 113,-715.5 119,-715.5 119,-709.5 113,-709.5"/>
<polygon fill="none" stroke="black" points="121,-709.5 121,-715.5 137,-715.5 137,-709.5 121,-709.5"/>
<polygon fill="none" stroke="black" points="139,-709.5 139,-715.5 145,-715.5 145,-709.5 139,-709.5"/>
<polygon fill="none" stroke="black" points="113,-701.5 113,-707.5 119,-707.5 119,-701.5 113,-701.5"/>
<polygon fill="none" stroke="black" points="121,-701.5 121,-707.5 137,-707.5 137,-701.5 121,-701.5"/>
<polygon fill="none" stroke="black" points="139,-701.5 139,-707.5 145,-707.5 145,-701.5 139,-701.5"/>
<polygon fill="none" stroke="black" points="113,-678.5 113,-699.5 119,-699.5 119,-678.5 113,-678.5"/>
<polygon fill="none" stroke="black" points="121,-678.5 121,-699.5 137,-699.5 137,-678.5 121,-678.5"/>
<text text-anchor="start" x="124" y="-685.3" font-family="Times,serif" font-size="14.00">X</text>
<polygon fill="none" stroke="black" points="139,-678.5 139,-699.5 145,-699.5 145,-678.5 139,-678.5"/>
<polygon fill="none" stroke="black" points="110,-676 110,-719 148,-719 148,-676 110,-676"/>
</g>
<!-- Empty&#45;&gt;M1 -->
<g id="edge1" class="edge">
<title>Empty&#45;&gt;M1</title>
<path fill="none" stroke="black" d="M129,-759.18C129,-751.9 129,-743.07 129,-734.43"/>
<polygon fill="black" stroke="black" points="132.5,-734.45 129,-724.45 125.5,-734.45 132.5,-734.45"/>
</g>
<!-- AI2 -->
<g id="node3" class="node">
<title>AI2</title>
<polygon fill="none" stroke="black" points="108,-608 108,-629 124,-629 124,-608 108,-608"/>
<text text-anchor="start" x="111" y="-614.8" font-family="Times,serif" font-size="14.00">O</text>
<polygon fill="none" stroke="black" points="126,-608 126,-629 142,-629 142,-608 126,-608"/>
<polygon fill="none" stroke="black" points="144,-608 144,-629 150,-629 150,-608 144,-608"/>
<polygon fill="none" stroke="black" points="108,-600 108,-606 124,-606 124,-600 108,-600"/>
<polygon fill="none" stroke="black" points="126,-600 126,-606 142,-606 142,-600 126,-600"/>
<polygon fill="none" stroke="black" points="144,-600 144,-606 150,-606 150,-600 144,-600"/>
<polygon fill="none" stroke="black" points="108,-577 108,-598 124,-598 124,-577 108,-577"/>
<polygon fill="none" stroke="black" points="126,-577 126,-598 142,-598 142,-577 126,-577"/>
<text text-anchor="start" x="129" y="-583.8" font-family="Times,serif" font-size="14.00">X</text>
<polygon fill="none" stroke="black" points="144,-577 144,-598 150,-598 150,-577 144,-577"/>
<polygon fill="none" stroke="black" points="105,-574 105,-632 153,-632 153,-574 105,-574"/>
</g>
<!-- M1&#45;&gt;AI2 -->
<g id="edge2" class="edge">
<title>M1&#45;&gt;AI2</title>
<path fill="none" stroke="black" d="M129,-672.2C129,-664.54 129,-655.84 129,-647.28"/>
<polygon fill="black" stroke="black" points="132.5,-647.31 129,-637.31 125.5,-647.31 132.5,-647.31"/>
</g>
<!-- M3 -->
<g id="node4" class="node">
<title>M3</title>
<polygon fill="none" stroke="black" points="103,-506 103,-527 119,-527 119,-506 103,-506"/>
<text text-anchor="start" x="106" y="-512.8" font-family="Times,serif" font-size="14.00">O</text>
<polygon fill="none" stroke="black" points="121,-506 121,-527 137,-527 137,-506 121,-506"/>
<polygon fill="none" stroke="black" points="139,-506 139,-527 155,-527 155,-506 139,-506"/>
<text text-anchor="start" x="142" y="-512.8" font-family="Times,serif" font-size="14.00">X</text>
<polygon fill="none" stroke="black" points="103,-498 103,-504 119,-504 119,-498 103,-498"/>
<polygon fill="none" stroke="black" points="121,-498 121,-504 137,-504 137,-498 121,-498"/>
<polygon fill="none" stroke="black" points="139,-498 139,-504 155,-504 155,-498 139,-498"/>
<polygon fill="none" stroke="black" points="103,-475 103,-496 119,-496 119,-475 103,-475"/>
<polygon fill="none" stroke="black" points="121,-475 121,-496 137,-496 137,-475 121,-475"/>
<text text-anchor="start" x="124" y="-481.8" font-family="Times,serif" font-size="14.00">X</text>
<polygon fill="none" stroke="black" points="139,-475 139,-496 155,-496 155,-475 139,-475"/>
<polygon fill="none" stroke="black" points="100,-472 100,-530 158,-530 158,-472 100,-472"/>
</g>
<!-- AI2&#45;&gt;M3 -->
<g id="edge3" class="edge">
<title>AI2&#45;&gt;M3</title>
<path fill="none" stroke="black" d="M129,-570.08C129,-562.24 129,-553.7 129,-545.41"/>
<polygon fill="black" stroke="black" points="132.5,-545.47 129,-535.47 125.5,-545.47 132.5,-545.47"/>
</g>
<!-- AI4 -->
<g id="node5" class="node">
<title>AI4</title>
<polygon fill="none" stroke="black" points="103,-403.5 103,-424.5 119,-424.5 119,-403.5 103,-403.5"/>
<text text-anchor="start" x="106" y="-410.3" font-family="Times,serif" font-size="14.00">O</text>
<polygon fill="none" stroke="black" points="121,-403.5 121,-424.5 137,-424.5 137,-403.5 121,-403.5"/>
<polygon fill="none" stroke="black" points="139,-403.5 139,-424.5 155,-424.5 155,-403.5 139,-403.5"/>
<text text-anchor="start" x="142" y="-410.3" font-family="Times,serif" font-size="14.00">X</text>
<polygon fill="none" stroke="black" points="103,-380.5 103,-401.5 119,-401.5 119,-380.5 103,-380.5"/>
<text text-anchor="start" x="106" y="-387.3" font-family="Times,serif" font-size="14.00">O</text>
<polygon fill="none" stroke="black" points="121,-380.5 121,-401.5 137,-401.5 137,-380.5 121,-380.5"/>
<polygon fill="none" stroke="black" points="139,-380.5 139,-401.5 155,-401.5 155,-380.5 139,-380.5"/>
<polygon fill="none" stroke="black" points="103,-357.5 103,-378.5 119,-378.5 119,-357.5 103,-357.5"/>
<polygon fill="none" stroke="black" points="121,-357.5 121,-378.5 137,-378.5 137,-357.5 121,-357.5"/>
<text text-anchor="start" x="124" y="-364.3" font-family="Times,serif" font-size="14.00">X</text>
<polygon fill="none" stroke="black" points="139,-357.5 139,-378.5 155,-378.5 155,-357.5 139,-357.5"/>
<polygon fill="none" stroke="black" points="100,-355 100,-428 158,-428 158,-355 100,-355"/>
</g>
<!-- M3&#45;&gt;AI4 -->
<g id="edge4" class="edge">
<title>M3&#45;&gt;AI4</title>
<path fill="none" stroke="black" d="M129,-468.04C129,-460.21 129,-451.64 129,-443.17"/>
<polygon fill="black" stroke="black" points="132.5,-443.28 129,-433.28 125.5,-443.28 132.5,-443.28"/>
</g>
<!-- M5 -->
<g id="node6" class="node">
<title>M5</title>
<polygon fill="none" stroke="black" points="103,-286.5 103,-307.5 119,-307.5 119,-286.5 103,-286.5"/>
<text text-anchor="start" x="106" y="-293.3" font-family="Times,serif" font-size="14.00">O</text>
<polygon fill="none" stroke="black" points="121,-286.5 121,-307.5 137,-307.5 137,-286.5 121,-286.5"/>
<polygon fill="none" stroke="black" points="139,-286.5 139,-307.5 155,-307.5 155,-286.5 139,-286.5"/>
<text text-anchor="start" x="142" y="-293.3" font-family="Times,serif" font-size="14.00">X</text>
<polygon fill="none" stroke="black" points="103,-263.5 103,-284.5 119,-284.5 119,-263.5 103,-263.5"/>
<text text-anchor="start" x="106" y="-270.3" font-family="Times,serif" font-size="14.00">O</text>
<polygon fill="none" stroke="black" points="121,-263.5 121,-284.5 137,-284.5 137,-263.5 121,-263.5"/>
<polygon fill="none" stroke="black" points="139,-263.5 139,-284.5 155,-284.5 155,-263.5 139,-263.5"/>
<polygon fill="none" stroke="black" points="103,-240.5 103,-261.5 119,-261.5 119,-240.5 103,-240.5"/>
<text text-anchor="start" x="106" y="-247.3" font-family="Times,serif" font-size="14.00">X</text>
<polygon fill="none" stroke="black" points="121,-240.5 121,-261.5 137,-261.5 137,-240.5 121,-240.5"/>
<text text-anchor="start" x="124" y="-247.3" font-family="Times,serif" font-size="14.00">X</text>
<polygon fill="none" stroke="black" points="139,-240.5 139,-261.5 155,-261.5 155,-240.5 139,-240.5"/>
<polygon fill="none" stroke="black" points="100,-238 100,-311 158,-311 158,-238 100,-238"/>
</g>
<!-- AI4&#45;&gt;M5 -->
<g id="edge5" class="edge">
<title>AI4&#45;&gt;M5</title>
<path fill="none" stroke="black" d="M129,-351.25C129,-343.19 129,-334.61 129,-326.22"/>
<polygon fill="black" stroke="black" points="132.5,-326.48 129,-316.48 125.5,-326.48 132.5,-326.48"/>
</g>
<!-- AI6 -->
<g id="node7" class="node">
<title>AI6</title>
<polygon fill="none" stroke="black" points="103,-169.5 103,-190.5 119,-190.5 119,-169.5 103,-169.5"/>
<text text-anchor="start" x="106" y="-176.3" font-family="Times,serif" font-size="14.00">O</text>
<polygon fill="none" stroke="black" points="121,-169.5 121,-190.5 137,-190.5 137,-169.5 121,-169.5"/>
<polygon fill="none" stroke="black" points="139,-169.5 139,-190.5 155,-190.5 155,-169.5 139,-169.5"/>
<text text-anchor="start" x="142" y="-176.3" font-family="Times,serif" font-size="14.00">X</text>
<polygon fill="none" stroke="black" points="103,-146.5 103,-167.5 119,-167.5 119,-146.5 103,-146.5"/>
<text text-anchor="start" x="106" y="-153.3" font-family="Times,serif" font-size="14.00">O</text>
<polygon fill="none" stroke="black" points="121,-146.5 121,-167.5 137,-167.5 137,-146.5 121,-146.5"/>
<text text-anchor="start" x="124" y="-153.3" font-family="Times,serif" font-size="14.00">O</text>
<polygon fill="none" stroke="black" points="139,-146.5 139,-167.5 155,-167.5 155,-146.5 139,-146.5"/>
<polygon fill="none" stroke="black" points="103,-123.5 103,-144.5 119,-144.5 119,-123.5 103,-123.5"/>
<text text-anchor="start" x="106" y="-130.3" font-family="Times,serif" font-size="14.00">X</text>
<polygon fill="none" stroke="black" points="121,-123.5 121,-144.5 137,-144.5 137,-123.5 121,-123.5"/>
<text text-anchor="start" x="124" y="-130.3" font-family="Times,serif" font-size="14.00">X</text>
<polygon fill="none" stroke="black" points="139,-123.5 139,-144.5 155,-144.5 155,-123.5 139,-123.5"/>
<polygon fill="none" stroke="black" points="100,-121 100,-194 158,-194 158,-121 100,-121"/>
</g>
<!-- M5&#45;&gt;AI6 -->
<g id="edge6" class="edge">
<title>M5&#45;&gt;AI6</title>
<path fill="none" stroke="black" d="M129,-234.25C129,-226.19 129,-217.61 129,-209.22"/>
<polygon fill="black" stroke="black" points="132.5,-209.48 129,-199.48 125.5,-209.48 132.5,-209.48"/>
</g>
<!-- M7 -->
<g id="node8" class="node">
<title>M7</title>
<polygon fill="none" stroke="black" points="11,-52.5 11,-73.5 27,-73.5 27,-52.5 11,-52.5"/>
<text text-anchor="start" x="14" y="-59.3" font-family="Times,serif" font-size="14.00">O</text>
<polygon fill="none" stroke="black" points="29,-52.5 29,-73.5 45,-73.5 45,-52.5 29,-52.5"/>
<polygon fill="none" stroke="black" points="47,-52.5 47,-73.5 63,-73.5 63,-52.5 47,-52.5"/>
<text text-anchor="start" x="50" y="-59.3" font-family="Times,serif" font-size="14.00">X</text>
<polygon fill="none" stroke="black" points="11,-29.5 11,-50.5 27,-50.5 27,-29.5 11,-29.5"/>
<text text-anchor="start" x="14" y="-36.3" font-family="Times,serif" font-size="14.00">O</text>
<polygon fill="none" stroke="black" points="29,-29.5 29,-50.5 45,-50.5 45,-29.5 29,-29.5"/>
<text text-anchor="start" x="32" y="-36.3" font-family="Times,serif" font-size="14.00">O</text>
<polygon fill="none" stroke="black" points="47,-29.5 47,-50.5 63,-50.5 63,-29.5 47,-29.5"/>
<polygon fill="none" stroke="black" points="11,-6.5 11,-27.5 27,-27.5 27,-6.5 11,-6.5"/>
<text text-anchor="start" x="14" y="-13.3" font-family="Times,serif" font-size="14.00">X</text>
<polygon fill="none" stroke="black" points="29,-6.5 29,-27.5 45,-27.5 45,-6.5 29,-6.5"/>
<text text-anchor="start" x="32" y="-13.3" font-family="Times,serif" font-size="14.00">X</text>
<polygon fill="none" stroke="black" points="47,-6.5 47,-27.5 63,-27.5 63,-6.5 47,-6.5"/>
<text text-anchor="start" x="50" y="-13.3" font-family="Times,serif" font-size="14.00">X</text>
<polygon fill="none" stroke="black" points="8,-4 8,-77 66,-77 66,-4 8,-4"/>
</g>
<!-- AI6&#45;&gt;M7 -->
<g id="edge7" class="edge">
<title>AI6&#45;&gt;M7</title>
<path fill="none" stroke="black" d="M97.6,-117.25C90.57,-108.46 83.03,-99.04 75.75,-89.94"/>
<polygon fill="black" stroke="black" points="78.5,-87.77 69.52,-82.15 73.03,-92.15 78.5,-87.77"/>
</g>
<!-- H71 -->
<g id="node9" class="node">
<title>H71</title>
<polygon fill="none" stroke="black" points="103,-52.5 103,-73.5 119,-73.5 119,-52.5 103,-52.5"/>
<text text-anchor="start" x="106" y="-59.3" font-family="Times,serif" font-size="14.00">O</text>
<polygon fill="none" stroke="black" points="121,-52.5 121,-73.5 137,-73.5 137,-52.5 121,-52.5"/>
<text text-anchor="start" x="124" y="-59.3" font-family="Times,serif" font-size="14.00">X</text>
<polygon fill="none" stroke="black" points="139,-52.5 139,-73.5 155,-73.5 155,-52.5 139,-52.5"/>
<text text-anchor="start" x="142" y="-59.3" font-family="Times,serif" font-size="14.00">X</text>
<polygon fill="none" stroke="black" points="103,-29.5 103,-50.5 119,-50.5 119,-29.5 103,-29.5"/>
<text text-anchor="start" x="106" y="-36.3" font-family="Times,serif" font-size="14.00">O</text>
<polygon fill="none" stroke="black" points="121,-29.5 121,-50.5 137,-50.5 137,-29.5 121,-29.5"/>
<text text-anchor="start" x="124" y="-36.3" font-family="Times,serif" font-size="14.00">O</text>
<polygon fill="none" stroke="black" points="139,-29.5 139,-50.5 155,-50.5 155,-29.5 139,-29.5"/>
<polygon fill="none" stroke="black" points="103,-6.5 103,-27.5 119,-27.5 119,-6.5 103,-6.5"/>
<text text-anchor="start" x="106" y="-13.3" font-family="Times,serif" font-size="14.00">X</text>
<polygon fill="none" stroke="black" points="121,-6.5 121,-27.5 137,-27.5 137,-6.5 121,-6.5"/>
<text text-anchor="start" x="124" y="-13.3" font-family="Times,serif" font-size="14.00">X</text>
<polygon fill="none" stroke="black" points="139,-6.5 139,-27.5 155,-27.5 155,-6.5 139,-6.5"/>
<polygon fill="none" stroke="black" points="100,-4 100,-77 158,-77 158,-4 100,-4"/>
</g>
<!-- AI6&#45;&gt;H71 -->
<g id="edge8" class="edge">
<title>AI6&#45;&gt;H71</title>
<path fill="none" stroke="black" d="M129,-117.25C129,-109.19 129,-100.61 129,-92.22"/>
<polygon fill="black" stroke="black" points="132.5,-92.48 129,-82.48 125.5,-92.48 132.5,-92.48"/>
</g>
<!-- H75 -->
<g id="node10" class="node">
<title>H75</title>
<polygon fill="none" stroke="black" points="195,-52.5 195,-73.5 211,-73.5 211,-52.5 195,-52.5"/>
<text text-anchor="start" x="198" y="-59.3" font-family="Times,serif" font-size="14.00">O</text>
<polygon fill="none" stroke="black" points="213,-52.5 213,-73.5 229,-73.5 229,-52.5 213,-52.5"/>
<polygon fill="none" stroke="black" points="231,-52.5 231,-73.5 247,-73.5 247,-52.5 231,-52.5"/>
<text text-anchor="start" x="234" y="-59.3" font-family="Times,serif" font-size="14.00">X</text>
<polygon fill="none" stroke="black" points="195,-29.5 195,-50.5 211,-50.5 211,-29.5 195,-29.5"/>
<text text-anchor="start" x="198" y="-36.3" font-family="Times,serif" font-size="14.00">O</text>
<polygon fill="none" stroke="black" points="213,-29.5 213,-50.5 229,-50.5 229,-29.5 213,-29.5"/>
<text text-anchor="start" x="216" y="-36.3" font-family="Times,serif" font-size="14.00">O</text>
<polygon fill="none" stroke="black" points="231,-29.5 231,-50.5 247,-50.5 247,-29.5 231,-29.5"/>
<text text-anchor="start" x="234" y="-36.3" font-family="Times,serif" font-size="14.00">X</text>
<polygon fill="none" stroke="black" points="195,-6.5 195,-27.5 211,-27.5 211,-6.5 195,-6.5"/>
<text text-anchor="start" x="198" y="-13.3" font-family="Times,serif" font-size="14.00">X</text>
<polygon fill="none" stroke="black" points="213,-6.5 213,-27.5 229,-27.5 229,-6.5 213,-6.5"/>
<text text-anchor="start" x="216" y="-13.3" font-family="Times,serif" font-size="14.00">X</text>
<polygon fill="none" stroke="black" points="231,-6.5 231,-27.5 247,-27.5 247,-6.5 231,-6.5"/>
<polygon fill="none" stroke="black" points="192,-4 192,-77 250,-77 250,-4 192,-4"/>
</g>
<!-- AI6&#45;&gt;H75 -->
<g id="edge9" class="edge">
<title>AI6&#45;&gt;H75</title>
<path fill="none" stroke="black" d="M160.4,-117.25C167.43,-108.46 174.97,-99.04 182.25,-89.94"/>
<polygon fill="black" stroke="black" points="184.97,-92.15 188.48,-82.15 179.5,-87.77 184.97,-92.15"/>
</g>
</g>
</svg>
